<svg xmlns="http://www.w3.org/2000/svg" viewBox="0 0 800 450" role="img" aria-label="TraceSynth project cover">
  <defs>
    <linearGradient id="bg" x1="0" y1="0" x2="1" y2="1">
      <stop offset="0" stop-color="#0d0a1f"/>
      <stop offset="1" stop-color="#151030"/>
    </linearGradient>
    <linearGradient id="accent" x1="0" y1="0" x2="1" y2="0">
      <stop offset="0" stop-color="#915eff"/>
      <stop offset="1" stop-color="#bf61ff"/>
    </linearGradient>
  </defs>
  <rect width="800" height="450" fill="url(#bg)"/>
  <g stroke="#211e35" stroke-width="1">
    <line x1="0" y1="90" x2="800" y2="90"/>
    <line x1="0" y1="180" x2="800" y2="180"/>
    <line x1="0" y1="270" x2="800" y2="270"/>
    <line x1="0" y1="360" x2="800" y2="360"/>
    <line x1="160" y1="0" x2="160" y2="450"/>
    <line x1="320" y1="0" x2="320" y2="450"/>
    <line x1="480" y1="0" x2="480" y2="450"/>
    <line x1="640" y1="0" x2="640" y2="450"/>
  </g>
  <!-- noisy traces (left) denoising into clean traces (right) -->
  <g fill="none" stroke-width="3" stroke-linecap="round">
    <polyline stroke="#4b4668" points="60,130 85,118 110,142 135,112 160,138 185,120 210,134"/>
    <polyline stroke="#4b4668" points="60,190 85,205 110,178 135,208 160,182 185,202 210,188"/>
    <polyline stroke="#4b4668" points="60,250 85,236 110,262 135,232 160,258 185,240 210,254"/>
    <polyline stroke="url(#accent)" points="330,130 420,130 445,155 530,155 555,130 645,130"/>
    <polyline stroke="url(#accent)" points="330,192 400,192 425,217 560,217 585,192 645,192"/>
    <polyline stroke="url(#accent)" points="330,254 450,254 475,279 590,279 615,254 645,254"/>
  </g>
  <g fill="#4b4668">
    <circle cx="240" cy="128" r="3"/>
    <circle cx="258" cy="196" r="3"/>
    <circle cx="244" cy="252" r="3"/>
    <circle cx="270" cy="160" r="2.5"/>
    <circle cx="276" cy="228" r="2.5"/>
  </g>
  <path d="M285 192 L318 192 M308 182 L318 192 L308 202" stroke="#00cea8" stroke-width="3" fill="none" stroke-linecap="round" stroke-linejoin="round"/>
  <rect x="56" y="40" rx="14" width="252" height="28" fill="none" stroke="#915eff" stroke-width="1.5"/>
  <text x="182" y="59" text-anchor="middle" font-family="'Segoe UI', Arial, sans-serif" font-size="15" fill="#b9a8f5">FSE 2026 · DIFFUSION MODELS</text>
  <text x="56" y="392" font-family="'Segoe UI', Arial, sans-serif" font-size="44" font-weight="700" fill="#ffffff">TraceSynth</text>
  <text x="56" y="422" font-family="'Segoe UI', Arial, sans-serif" font-size="17" fill="#aaa6c3">Constraint-guided kernel-trace generation</text>
</svg>
