<svg xmlns="http://www.w3.org/2000/svg" viewBox="0 0 800 450" role="img" aria-label="Artifact evaluation toolkit project cover">
  <defs>
    <linearGradient id="bg" x1="0" y1="0" x2="1" y2="1">
      <stop offset="0" stop-color="#0d0a1f"/>
      <stop offset="1" stop-color="#151030"/>
    </linearGradient>
  </defs>
  <rect width="800" height="450" fill="url(#bg)"/>
  <!-- stacked documents -->
  <g>
    <rect x="120" y="100" width="180" height="220" rx="12" fill="#181330" stroke="#37325a" stroke-width="2" transform="rotate(-6 210 210)"/>
    <rect x="140" y="90" width="180" height="220" rx="12" fill="#1d1836" stroke="#37325a" stroke-width="2" transform="rotate(-2 230 200)"/>
    <rect x="160" y="80" width="180" height="220" rx="12" fill="#211e35" stroke="#915eff" stroke-width="2"/>
    <g stroke="#4b4668" stroke-width="6" stroke-linecap="round">
      <line x1="185" y1="120" x2="315" y2="120"/>
      <line x1="185" y1="150" x2="290" y2="150"/>
      <line x1="185" y1="180" x2="305" y2="180"/>
      <line x1="185" y1="210" x2="270" y2="210"/>
    </g>
    <circle cx="315" cy="270" r="26" fill="#00cea8"/>
    <path d="M303 270 l9 9 l17 -19" stroke="#0d0a1f" stroke-width="5" fill="none" stroke-linecap="round" stroke-linejoin="round"/>
  </g>
  <!-- knowledge graph -->
  <g stroke="#37325a" stroke-width="2">
    <line x1="480" y1="140" x2="580" y2="100"/>
    <line x1="480" y1="140" x2="600" y2="190"/>
    <line x1="600" y1="190" x2="580" y2="100"/>
    <line x1="600" y1="190" x2="540" y2="270"/>
    <line x1="600" y1="190" x2="690" y2="250"/>
  </g>
  <g>
    <circle cx="480" cy="140" r="14" fill="#915eff"/>
    <circle cx="580" cy="100" r="11" fill="#211e35" stroke="#6c63a8" stroke-width="2"/>
    <circle cx="600" cy="190" r="14" fill="#00cea8"/>
    <circle cx="540" cy="270" r="11" fill="#211e35" stroke="#6c63a8" stroke-width="2"/>
    <circle cx="690" cy="250" r="11" fill="#211e35" stroke="#6c63a8" stroke-width="2"/>
  </g>
  <rect x="56" y="24" rx="14" width="270" height="28" fill="none" stroke="#915eff" stroke-width="1.5"/>
  <text x="191" y="43" text-anchor="middle" font-family="'Segoe UI', Arial, sans-serif" font-size="15" fill="#b9a8f5">OPENAI · NEO4J · 2,000+ ARTIFACTS</text>
  <text x="56" y="392" font-family="'Segoe UI', Arial, sans-serif" font-size="44" font-weight="700" fill="#ffffff">Artifact Evaluation Toolkit</text>
  <text x="56" y="422" font-family="'Segoe UI', Arial, sans-serif" font-size="17" fill="#aaa6c3">AI-assisted research-artifact documentation &amp; analysis</text>
</svg>
