<svg xmlns="http://www.w3.org/2000/svg" viewBox="0 0 800 450" role="img" aria-label="AI web summary tool project cover">
  <defs>
    <linearGradient id="bg" x1="0" y1="0" x2="1" y2="1">
      <stop offset="0" stop-color="#0d0a1f"/>
      <stop offset="1" stop-color="#151030"/>
    </linearGradient>
  </defs>
  <rect width="800" height="450" fill="url(#bg)"/>
  <!-- browser window with full text -->
  <g>
    <rect x="80" y="60" width="300" height="250" rx="12" fill="#1d1836" stroke="#37325a" stroke-width="2"/>
    <rect x="80" y="60" width="300" height="34" rx="12" fill="#211e35"/>
    <rect x="80" y="82" width="300" height="12" fill="#211e35"/>
    <circle cx="102" cy="77" r="5" fill="#e05d5d"/>
    <circle cx="120" cy="77" r="5" fill="#f5af19"/>
    <circle cx="138" cy="77" r="5" fill="#39d353"/>
    <g stroke="#4b4668" stroke-width="6" stroke-linecap="round">
      <line x1="104" y1="120" x2="356" y2="120"/>
      <line x1="104" y1="145" x2="330" y2="145"/>
      <line x1="104" y1="170" x2="350" y2="170"/>
      <line x1="104" y1="195" x2="310" y2="195"/>
      <line x1="104" y1="220" x2="344" y2="220"/>
      <line x1="104" y1="245" x2="290" y2="245"/>
      <line x1="104" y1="270" x2="336" y2="270"/>
    </g>
  </g>
  <!-- condense arrow -->
  <path d="M410 185 L470 185 M458 173 L470 185 L458 197" stroke="#00cea8" stroke-width="4" fill="none" stroke-linecap="round" stroke-linejoin="round"/>
  <!-- summary card -->
  <g>
    <rect x="500" y="120" width="220" height="130" rx="12" fill="#211e35" stroke="#915eff" stroke-width="2"/>
    <g stroke="#915eff" stroke-width="6" stroke-linecap="round">
      <line x1="524" y1="155" x2="696" y2="155"/>
      <line x1="524" y1="185" x2="660" y2="185"/>
      <line x1="524" y1="215" x2="676" y2="215"/>
    </g>
  </g>
  <!-- AI sparkle -->
  <g fill="#00cea8">
    <path d="M712 96 l6 16 16 6 -16 6 -6 16 -6 -16 -16 -6 16 -6 z"/>
    <path d="M672 76 l3.5 9 9 3.5 -9 3.5 -3.5 9 -3.5 -9 -9 -3.5 9 -3.5 z" opacity="0.7"/>
  </g>
  <rect x="56" y="24" rx="14" width="230" height="28" fill="none" stroke="#915eff" stroke-width="1.5"/>
  <text x="171" y="43" text-anchor="middle" font-family="'Segoe UI', Arial, sans-serif" font-size="15" fill="#b9a8f5">SPRING BOOT · OPENAI</text>
  <text x="56" y="392" font-family="'Segoe UI', Arial, sans-serif" font-size="44" font-weight="700" fill="#ffffff">AI Web Summary Tool</text>
  <text x="56" y="422" font-family="'Segoe UI', Arial, sans-serif" font-size="17" fill="#aaa6c3">Web pages distilled into summaries with LLMs</text>
</svg>
